# File created by Blade
# Date/Time:  Thu Jan 22 18:06:27 2015
# Frame Rate: 120.000 fps
#------------------------------------------------------
:FULLY-SPECIFIED
:DEGREES
3582
root -0.206402 32.848027 -2.558317 5.882001 -4.129175 2.702151
RightUpLeg -25.075865 -0.985773 -1.346218
RightLeg 81.272892 -0.000000 -0.000000
RightFoot -13.815296 -7.849117 9.482894
RightToeBase -9.404971 -0.000000 0.000000
LeftUpLeg -0.842614 0.378871 -10.491468
LeftLeg 0.184534 -0.000000 -0.000000
LeftFoot -11.291577 6.491152 -6.383440
LeftToeBase 11.580556 -0.000000 -0.000000
Spine -5.809146 -4.091538 -6.058513
RightShoulder -18.656845 -16.085816 -19.265449
RightArm 22.027982 28.210414 55.342225
RightForeArm -16.129976 -0.000000 39.344891
RightHand 8.184202 -0.000000 -27.679818
RightHandThumb1 -24.326973 -0.000000 -32.862282
LeftShoulder -21.973461 4.059575 26.999922
LeftArm 5.324202 -43.232945 -50.659531
LeftForeArm 9.744809 -0.000000 65.341720
LeftHand -2.323418 -0.000000 33.628177
LeftHandThumb1 -26.253704 0.000000 33.147579
Head -1.157649 -1.989793 6.741082
3583
root -0.205051 32.851247 -2.570981 5.916853 -4.121957 2.724724
RightUpLeg -25.226202 -0.952409 -1.509701
RightLeg 80.392037 -0.000000 -0.000000
RightFoot -14.458138 -8.122348 9.286651
RightToeBase -9.626648 -0.000000 0.000000
LeftUpLeg -0.871578 0.280340 -10.510534
LeftLeg 0.144233 -0.000000 -0.000000
LeftFoot -11.242317 6.616119 -6.449021
LeftToeBase 11.379375 -0.000000 -0.000000
Spine -5.799707 -4.034311 -6.076894
RightShoulder -18.642999 -16.053018 -19.352629
RightArm 21.945842 28.322468 55.444426
RightForeArm -16.338553 -0.000000 39.571267
RightHand 8.880166 -0.000000 -30.831783
RightHandThumb1 -24.326973 -0.000000 -32.862282
LeftShoulder -21.907179 3.952339 27.052814
LeftArm 5.317498 -43.089043 -50.676444
LeftForeArm 9.771946 -0.000000 65.294258
LeftHand -2.381385 -0.000000 33.778742
LeftHandThumb1 -26.253704 0.000000 33.147579
Head -1.137232 -2.063437 6.817487
3584
root -0.211032 32.854495 -2.580715 5.942928 -4.097447 2.689164
RightUpLeg -25.329294 -0.962892 -1.599801
RightLeg 79.417607 -0.000000 -0.000000
RightFoot -15.114145 -8.348224 9.385563
RightToeBase -9.867904 -0.000000 0.000000
LeftUpLeg -0.905221 0.356806 -10.466106
LeftLeg 0.129490 -0.000000 -0.000000
LeftFoot -11.226282 6.545238 -6.455315
LeftToeBase 11.335242 -0.000000 -0.000000
Spine -5.782565 -3.998533 -6.042852
RightShoulder -18.629433 -16.017428 -19.409098
RightArm 21.887735 28.496482 55.528067
RightForeArm -16.518889 0.000000 39.800374
RightHand 9.380009 -0.000000 -33.109872
RightHandThumb1 -24.326973 -0.000000 -32.862282
LeftShoulder -21.881711 3.923430 27.080341
LeftArm 5.441533 -42.961217 -50.778468
LeftForeArm 9.709064 -0.000000 65.246899
LeftHand -2.401941 -0.000000 34.020178
LeftHandThumb1 -26.253704 0.000000 33.147579
Head -1.088816 -2.123749 6.910141
3585
root -0.218586 32.857776 -2.590343 5.978115 -4.064533 2.649978
RightUpLeg -25.413434 -0.974099 -1.683235
RightLeg 78.355646 -0.000000 -0.000000
RightFoot -15.839274 -8.560932 9.484706
RightToeBase -10.079627 -0.000000 0.000000
LeftUpLeg -0.939397 0.392932 -10.412658
LeftLeg 0.101087 -0.000000 -0.000000
LeftFoot -11.209193 6.510301 -6.443611
LeftToeBase 11.378111 -0.000000 -0.000000
Spine -5.778565 -3.966752 -6.008518
RightShoulder -18.636128 -15.969297 -19.462339
RightArm 21.819484 28.632102 55.595007
RightForeArm -16.732029 0.000000 40.086847
RightHand 9.399915 0.000000 -34.642314
RightHandThumb1 -24.326973 -0.000000 -32.862282
LeftShoulder -21.841368 3.880646 27.105273
LeftArm 5.534160 -42.847186 -50.839149
LeftForeArm 9.703574 -0.000000 65.217180
LeftHand -2.439721 -0.000000 33.937321
LeftHandThumb1 -26.253704 0.000000 33.147579
Head -1.023673 -2.173027 7.015537
3586
root -0.223551 32.861476 -2.599063 6.000824 -4.031923 2.631650
RightUpLeg -25.455394 -1.047851 -1.812418
RightLeg 77.219330 -0.000000 -0.000000
RightFoot -16.614797 -8.655327 9.462028
RightToeBase -10.119922 -0.000000 0.000000
LeftUpLeg -0.964281 0.388702 -10.377339
LeftLeg 0.077269 -0.000000 -0.000000
LeftFoot -11.172258 6.468461 -6.495497
LeftToeBase 11.409306 -0.000000 -0.000000
Spine -5.767353 -3.953331 -5.988699
RightShoulder -18.627538 -15.919109 -19.522469
RightArm 21.771421 28.816887 55.682638
RightForeArm -17.156351 -0.000000 40.465869
RightHand 9.405777 -0.000000 -35.214075
RightHandThumb1 -24.326973 -0.000000 -32.862282
LeftShoulder -21.818486 3.866663 27.097957
LeftArm 5.650354 -42.763159 -50.905335
LeftForeArm 9.761506 -0.000000 65.188179
LeftHand -2.432366 -0.000000 33.847052
LeftHandThumb1 -26.253704 0.000000 33.147579
Head -0.941145 -2.182989 7.098529
3587
root -0.228254 32.864369 -2.608902 6.029842 -3.996557 2.618875
RightUpLeg -25.503522 -1.122085 -1.941695
RightLeg 76.055862 -0.000000 -0.000000
RightFoot -17.248577 -8.783250 9.287604
RightToeBase -10.599713 -0.000000 0.000000
LeftUpLeg -1.000705 0.404695 -10.355119
LeftLeg 0.077760 -0.000000 -0.000000
LeftFoot -11.155747 6.437466 -6.536812
LeftToeBase 11.367935 -0.000000 -0.000000
Spine -5.761132 -3.950984 -5.978482
RightShoulder -18.632025 -15.889064 -19.543180
RightArm 21.773311 29.003293 55.714853
RightForeArm -17.676294 -0.000000 40.791308
RightHand 9.680470 0.000000 -34.983226
RightHandThumb1 -24.326973 -0.000000 -32.862282
LeftShoulder -21.795157 3.861646 27.090402
LeftArm 5.754875 -42.688191 -50.957165
LeftForeArm 9.830453 -0.000000 65.171203
LeftHand -2.419301 -0.000000 33.881754
LeftHandThumb1 -26.253704 0.000000 33.147579
Head -0.857107 -2.182653 7.185972
3588
root -0.232762 32.867012 -2.618406 6.060221 -3.959006 2.600637
RightUpLeg -25.534612 -1.188704 -2.061743
RightLeg 74.846789 -0.000000 -0.000000
RightFoot -17.901833 -8.793992 9.317099
RightToeBase -10.458817 -0.000000 0.000000
LeftUpLeg -1.042453 0.435961 -10.325587
LeftLeg 0.080811 -0.000000 -0.000000
LeftFoot -11.179233 6.406833 -6.617882
LeftToeBase 11.511225 -0.000000 -0.000000
Spine -5.762547 -3.965485 -5.956253
RightShoulder -18.643117 -15.918486 -19.553089
RightArm 21.859822 29.124626 55.751618
RightForeArm -18.110037 -0.000000 41.104122
RightHand 9.475857 0.000000 -34.497952
RightHandThumb1 -24.326973 -0.000000 -32.862282
LeftShoulder -21.770683 3.835147 27.090413
LeftArm 5.796205 -42.612353 -50.975679
LeftForeArm 9.837598 0.000000 65.168933
LeftHand -2.315454 -0.000000 33.816000
LeftHandThumb1 -26.253704 0.000000 33.147579
Head -0.746450 -2.133603 7.275795
